# xmcd
#
# Track frame offsets:
#	150
#	13734
#	31686
#	43871
#	59566
#	74113
#	87034
#	108487
#	122373
#	132814
#	144893
#
# Disc length: 2165 seconds
#
# Revision: 0
# Processed by: cddbd v1.5.2PL0 Copyright (c) Steve Scherf et al.
# Submitted via: dBpowerAMP V4.0
#
DISCID=9308730b
DTITLE=Jason Byrd - Just a Southern Thing
DYEAR=2007
DGENRE=Country
TTITLE0=Lovin' In the Country
TTITLE1=How Quickly They Forget
TTITLE2=The Checkout Line
TTITLE3=I Chose Us
TTITLE4=Signs of Life
TTITLE5=Mission of Love
TTITLE6=Just a Southern Thing
TTITLE7=You Were There
TTITLE8=Lovin' Like That
TTITLE9=Just for the Heavon of It
TTITLE10=No End in Sight
EXTD=
EXTT0=
EXTT1=
EXTT2=
EXTT3=
EXTT4=
EXTT5=
EXTT6=
EXTT7=
EXTT8=
EXTT9=
EXTT10=
PLAYORDER=
